# xmcd
#
# Track frame offsets: 
#        150
#        14469
#        30402
#        43835
#        58705
#        75063
#        93166
#        111040
#        132043
#        152415
#        169981
#        178159
#        194366
#
# Disc length: 3055 seconds
#
# Revision: 0
# Processed by: cddbd v1.5.2PL0 Copyright (c) Steve Scherf et al.
# Submitted via: ExactAudioCopyFreeDBPlugin 1.0
#
DISCID=970bed0d
DTITLE=Johnny Mastro and Mama's Boys - Luke's Dream
DYEAR=2012
DGENRE=Blues
TTITLE0=Luke’s Stomp
TTITLE1=Thunder Roll
TTITLE2=Knee High
TTITLE3=Junker Blues
TTITLE4=Mr Jj’s Man
TTITLE5=Hurt
TTITLE6=Tonight We Ride
TTITLE7=The Light
TTITLE8=Francine
TTITLE9=Spider
TTITLE10=Roller Coaster
TTITLE11=My Rocket
TTITLE12=Temperature
EXTD=
EXTT0=
EXTT1=
EXTT2=
EXTT3=
EXTT4=
EXTT5=
EXTT6=
EXTT7=
EXTT8=
EXTT9=
EXTT10=
EXTT11=
EXTT12=
PLAYORDER=
